<?xml version="1.0" standalone="no"?>
<!DOCTYPE svg PUBLIC "-//W3C//DTD SVG 20010904//EN"
 "http://www.w3.org/TR/2001/REC-SVG-20010904/DTD/svg10.dtd">
<svg version="1.0" xmlns="http://www.w3.org/2000/svg"
 width="1000.000000pt" height="1000.000000pt" viewBox="0 0 1000.000000 1000.000000"
 preserveAspectRatio="xMidYMid meet">
<metadata>
Created by potrace 1.14, written by Peter Selinger 2001-2017
</metadata>
<g transform="translate(0.000000,1000.000000) scale(0.100000,-0.100000)"
fill="#000000" stroke="none">
<path d="M4470 9683 c-213 -24 -691 -127 -871 -186 -232 -77 -351 -123 -497
-188 -84 -38 -155 -69 -159 -69 -3 0 -54 -27 -112 -59 -58 -32 -126 -69 -151
-82 -25 -13 -97 -56 -160 -95 -731 -460 -1295 -1066 -1691 -1819 -67 -128
-219 -460 -219 -480 0 -9 -6 -28 -14 -43 -29 -57 -127 -363 -156 -487 -52
-222 -88 -404 -109 -557 -19 -132 -21 -197 -21 -618 0 -421 2 -486 21 -618 21
-153 57 -335 109 -557 29 -124 127 -430 156 -487 8 -15 14 -34 14 -43 0 -20
152 -352 219 -480 309 -587 720 -1085 1232 -1493 201 -160 480 -350 619 -421
25 -13 93 -50 151 -82 58 -32 109 -59 112 -59 4 0 75 -31 159 -69 146 -65 265
-111 497 -188 126 -42 467 -121 686 -160 l160 -28 550 0 550 0 160 28 c260 46
608 131 765 187 80 29 171 60 202 71 32 10 128 50 213 89 85 38 158 70 162 70
3 0 54 26 112 59 58 32 135 74 171 93 150 81 388 242 583 396 563 442 1036
1039 1335 1682 96 205 125 277 192 470 97 278 172 593 222 930 21 144 23 186
23 610 0 424 -2 466 -23 610 -50 337 -125 652 -222 930 -67 193 -96 265 -192
470 -299 643 -772 1240 -1335 1682 -195 154 -433 315 -583 396 -36 19 -113 61
-171 93 -58 33 -109 59 -112 59 -4 0 -77 32 -162 70 -85 39 -181 79 -213 89
-31 11 -122 42 -202 71 -159 57 -467 133 -740 182 l-175 32 -525 2 c-289 1
-541 0 -560 -3z"/>
</g>
</svg>
